<svg width="32" height="32" viewBox="0 0 32 32" fill="none" xmlns="http://www.w3.org/2000/svg">
<path d="M30.9968 16C30.9968 18.1644 31.0028 20.3288 30.9968 22.4992C30.9847 25.643 29.5216 27.9706 26.9097 29.615C25.3801 30.5703 23.6811 30.9935 21.8794 30.9935C17.9375 30.9935 14.0015 31.0116 10.0596 30.9874C7.32073 30.9693 4.9628 30.002 3.09459 27.9706C1.93981 26.7131 1.25057 25.2319 1.05105 23.5209C1.00873 23.1582 1.00269 22.8015 1.00269 22.4387C1.00269 18.1281 0.996641 13.8175 1.00269 9.50686C1.02083 6.35702 2.48395 4.02941 5.09581 2.38496C6.63754 1.42369 8.3425 1.00653 10.1563 1.00653C14.0862 1.00653 18.0161 0.988392 21.9459 1.01258C24.6969 1.03071 27.0608 2.00408 28.9291 4.04754C30.0717 5.29901 30.7549 6.78022 30.9484 8.47304C31.027 9.13807 30.9907 9.8031 30.9968 10.4621C31.0028 12.3121 30.9968 14.156 30.9968 16ZM3.24574 16C3.24574 18.2188 3.2397 20.4315 3.24574 22.6503C3.25179 24.1739 3.80802 25.4858 4.84793 26.574C6.24455 28.0311 7.98579 28.7384 9.98701 28.7505C13.9592 28.7747 17.9254 28.7565 21.8976 28.7565C23.1793 28.7565 24.4006 28.4784 25.5131 27.8376C27.5929 26.6466 28.7658 24.8933 28.7658 22.4387C28.7658 18.0737 28.7658 13.7147 28.7658 9.34967C28.7658 7.83823 28.2156 6.53235 27.1818 5.45016C25.7972 3.98709 24.0499 3.26764 22.0548 3.25555C18.0402 3.22532 14.0318 3.24346 10.0172 3.24346C8.76572 3.24346 7.58071 3.5397 6.49243 4.15637C4.41866 5.35343 3.2397 7.1067 3.24574 9.56127C3.24574 11.7075 3.24574 13.8538 3.24574 16Z" fill="#A7A7A7"/>
<path d="M16.0207 22.4084C12.115 22.4084 8.98322 19.2888 8.98927 15.3953C8.99531 11.6047 12.1695 8.49714 16.0449 8.50318C19.9385 8.50318 23.0824 11.6288 23.0764 15.486C23.0703 19.3069 19.9083 22.4084 16.0207 22.4084ZM16.0207 20.1715C18.6749 20.1715 20.8394 18.0615 20.8394 15.4679C20.8394 12.8622 18.6931 10.7401 16.0449 10.7401C13.3907 10.7401 11.2263 12.8501 11.2263 15.4437C11.2263 18.0494 13.3726 20.1715 16.0207 20.1715Z" fill="#A7A7A7"/>
<path d="M22.4111 7.93498C22.4111 7.07648 23.0701 6.38727 23.8924 6.38727C24.7146 6.38727 25.3737 7.08253 25.3737 7.93498C25.3737 8.77534 24.7147 9.46456 23.9045 9.4706C23.0822 9.47665 22.4111 8.79348 22.4111 7.93498Z" fill="#A7A7A7"/>
</svg>
