<?xml version="1.0" standalone="no"?>
<!DOCTYPE svg PUBLIC "-//W3C//DTD SVG 20010904//EN"
 "http://www.w3.org/TR/2001/REC-SVG-20010904/DTD/svg10.dtd">
<svg version="1.0" xmlns="http://www.w3.org/2000/svg"
 width="3967.000000pt" height="3967.000000pt" viewBox="0 0 3967.000000 3967.000000"
 preserveAspectRatio="xMidYMid meet">

<g transform="translate(0.000000,3967.000000) scale(0.100000,-0.100000)"
fill="#000000" stroke="none">
<path d="M13240 36249 c-651 -20 -1013 -115 -1291 -337 -271 -217 -420 -549
-459 -1017 -20 -240 -14 -429 36 -1245 41 -675 73 -928 169 -1305 169 -665
447 -1195 1174 -2235 404 -579 593 -867 718 -1095 299 -544 407 -1082 438
-2180 3 -110 10 -454 15 -765 17 -959 47 -1527 115 -2200 156 -1530 522 -3098
1007 -4315 378 -948 808 -1787 1900 -3710 789 -1389 1006 -1787 1342 -2465
273 -549 433 -908 603 -1350 284 -740 457 -1463 480 -2001 l6 -147 -144 -183
c-545 -699 -1334 -1654 -2224 -2694 -880 -1030 -1423 -1688 -1721 -2085 -350
-467 -578 -842 -660 -1085 -38 -114 -40 -250 -4 -315 16 -28 43 -55 74 -74 44
-28 57 -31 125 -30 188 3 469 169 866 510 174 150 557 525 765 751 80 86 170
184 201 217 545 588 1506 1759 2160 2631 295 393 412 588 539 896 156 379 234
757 255 1237 l7 153 227 302 c1103 1466 1783 2590 2391 3957 396 892 692 1740
1080 3095 188 660 250 864 340 1130 157 461 318 815 489 1071 236 355 437 556
1187 1190 453 384 606 517 821 716 666 614 1023 1128 1330 1913 70 177 399
1159 458 1366 94 328 127 523 128 754 1 244 -38 415 -136 599 -130 244 -320
412 -637 565 -258 123 -449 188 -1095 366 -504 139 -505 139 -725 139 -174 0
-191 -2 -275 -28 -247 -76 -452 -199 -631 -381 -76 -77 -202 -243 -215 -284
-7 -21 -437 76 -705 158 -299 92 -440 118 -589 107 -186 -12 -298 -53 -745
-271 -348 -169 -469 -220 -618 -258 -76 -19 -113 -21 -287 -21 -178 1 -228 5
-455 39 -502 74 -889 59 -1335 -55 -530 -135 -1040 -426 -1431 -817 -291 -292
-475 -612 -541 -940 -22 -110 -24 -357 -4 -458 73 -369 317 -735 817 -1225
470 -460 806 -668 1219 -756 119 -25 298 -49 455 -60 l95 -7 100 -96 c511
-489 1027 -865 1520 -1106 354 -173 600 -244 875 -252 177 -5 263 8 365 55 79
37 124 78 161 144 26 48 29 62 29 143 0 83 -3 96 -36 165 -49 101 -107 175
-236 301 -335 327 -852 602 -1369 729 -289 71 -600 109 -1145 139 l-155 9 -61
63 c-124 131 -258 295 -369 451 -62 88 -65 93 -42 96 238 28 371 64 521 138
108 53 177 101 372 259 285 231 437 330 678 444 410 195 815 301 1144 301 229
0 344 -40 463 -160 191 -193 279 -500 379 -1320 22 -179 61 -503 86 -720 116
-995 174 -1247 313 -1344 61 -43 149 -48 224 -14 84 39 155 103 612 546 617
600 1145 1149 1486 1547 514 601 796 1103 874 1555 80 465 -40 986 -332 1440
-81 125 -135 193 -247 308 -303 314 -614 443 -1464 611 -163 33 -315 62 -338
66 -24 4 -43 10 -43 14 0 3 29 43 64 87 149 189 396 352 625 411 133 34 310
29 486 -16 155 -38 706 -191 855 -237 478 -145 758 -284 941 -464 123 -122
185 -226 234 -396 70 -241 51 -513 -65 -939 -60 -220 -396 -1221 -485 -1446
-192 -482 -415 -866 -711 -1221 -272 -326 -576 -611 -1352 -1267 -457 -387
-555 -474 -751 -666 -605 -593 -834 -1064 -1283 -2635 -237 -831 -376 -1287
-523 -1720 -567 -1662 -1289 -3090 -2291 -4531 -211 -303 -567 -793 -706 -972
l-37 -47 -5 42 c-3 24 -10 86 -16 138 -88 758 -388 1686 -894 2758 -315 669
-673 1336 -1434 2677 -1072 1888 -1480 2667 -1855 3540 -548 1279 -941 2866
-1117 4510 -71 663 -103 1274 -120 2265 -23 1328 -57 1767 -176 2253 -127 518
-294 831 -922 1732 -728 1044 -985 1488 -1160 2010 -144 427 -206 806 -252
1525 -11 173 -25 387 -32 475 -6 88 -12 304 -12 480 -1 336 8 440 53 617 87
340 285 573 586 689 283 110 582 141 1380 143 583 1 624 -2 780 -63 238 -92
494 -358 601 -625 18 -44 32 -81 31 -82 -1 -1 -112 7 -247 17 -319 25 -867 36
-1021 20 -441 -46 -768 -208 -1104 -547 -179 -180 -306 -357 -415 -576 -245
-494 -256 -980 -38 -1648 142 -434 390 -954 839 -1757 206 -368 738 -1269 821
-1390 58 -84 134 -158 183 -179 44 -18 126 -18 169 0 85 36 175 154 280 369
93 191 178 395 441 1055 128 323 267 668 310 767 149 349 289 597 416 738 64
71 172 149 248 178 78 30 211 36 323 15 390 -74 973 -434 1351 -837 86 -90
139 -158 354 -449 124 -169 203 -254 311 -335 91 -68 240 -150 340 -185 34
-13 64 -26 66 -29 11 -17 -304 -258 -502 -385 l-118 -76 -293 60 c-304 62
-539 100 -746 121 -172 17 -522 15 -681 -4 -574 -71 -1119 -281 -1361 -526
-167 -168 -173 -358 -16 -501 223 -204 712 -257 1284 -140 526 108 1149 348
1709 660 l145 81 105 -20 c460 -88 792 -78 1123 33 297 99 729 322 1072 553
501 336 736 629 821 1023 25 117 26 407 1 535 -52 263 -148 499 -314 767 -193
313 -523 666 -820 880 -257 185 -542 332 -846 434 -241 82 -358 106 -741 154
-283 36 -367 51 -497 91 -225 68 -369 164 -749 500 -303 267 -433 363 -565
418 -175 73 -257 82 -726 79 -411 -3 -658 6 -664 26 -78 265 -188 456 -370
641 -222 227 -440 334 -739 364 -120 12 -673 12 -1046 0z m1265 -1189 c291
-16 665 -44 674 -50 14 -9 -7 -153 -35 -241 -54 -171 -140 -331 -385 -717 -83
-130 -153 -239 -155 -241 -1 -1 -51 8 -111 22 -330 78 -729 88 -1035 26 -255
-52 -426 -137 -561 -278 -87 -91 -153 -214 -188 -346 -27 -103 -37 -375 -19
-538 32 -296 126 -684 230 -948 56 -143 57 -145 9 -54 -191 361 -383 846 -458
1153 -55 227 -65 303 -65 512 0 216 16 317 75 495 159 472 586 938 1015 1109
132 52 277 83 469 99 86 8 388 6 540 -3z m1475 -76 c487 -3 530 -4 601 -23
157 -41 289 -128 574 -381 253 -225 352 -306 477 -390 258 -174 437 -230 919
-290 274 -34 369 -50 514 -86 361 -91 707 -256 1015 -485 152 -112 450 -407
561 -554 367 -483 521 -939 453 -1336 -57 -329 -243 -571 -675 -874 -251 -176
-698 -420 -964 -524 -203 -80 -412 -121 -612 -121 -78 0 -341 25 -350 33 -1 2
43 37 100 78 149 108 281 215 376 305 l84 79 176 1 c191 1 266 12 423 64 504
168 877 688 819 1141 -52 405 -393 826 -976 1204 -327 212 -536 303 -1190 514
-503 163 -645 251 -1140 706 -338 311 -565 481 -803 602 -258 131 -422 144
-610 49 -88 -44 -122 -83 -122 -140 0 -48 19 -80 60 -101 44 -23 73 -18 155
25 65 34 85 40 139 40 81 0 149 -21 270 -83 234 -120 411 -253 766 -577 257
-235 391 -346 525 -435 222 -147 321 -190 807 -349 400 -130 542 -186 743
-290 577 -298 1014 -719 1126 -1086 28 -94 31 -234 6 -330 -78 -296 -346 -569
-661 -675 -72 -24 -239 -55 -299 -55 l-28 0 26 43 c40 65 74 145 97 227 27 99
22 281 -12 380 -79 234 -242 451 -621 827 -457 452 -861 759 -1264 958 -166
81 -300 131 -474 175 -207 51 -352 70 -716 95 -513 35 -639 62 -1034 222 -102
41 -231 93 -286 115 -55 22 -104 43 -109 48 -5 5 55 108 136 237 171 269 207
330 283 482 77 154 132 323 147 450 10 85 15 100 28 94 8 -3 251 -8 540 -9z
m-1910 -1324 c125 -9 368 -46 389 -59 7 -5 -27 -82 -97 -222 -148 -292 -176
-360 -494 -1184 -174 -453 -302 -686 -414 -756 -46 -28 -72 -20 -127 41 -147
164 -319 667 -393 1150 -25 158 -25 438 -1 535 53 215 193 353 433 428 203 64
444 87 704 67z m872 -226 c647 -263 726 -282 1323 -324 447 -32 661 -69 890
-155 406 -152 885 -490 1369 -965 380 -373 553 -597 610 -789 23 -77 21 -188
-5 -264 -24 -72 -83 -176 -131 -229 l-33 -38 -100 34 c-136 45 -201 75 -303
142 -120 77 -214 178 -369 395 -169 234 -270 354 -421 501 -412 399 -970 727
-1368 804 -377 72 -678 -66 -923 -426 -159 -233 -266 -466 -617 -1348 -286
-717 -385 -954 -465 -1114 -57 -113 -134 -238 -147 -238 -26 0 -68 65 -344
527 -396 665 -898 1554 -817 1448 64 -84 143 -154 201 -180 53 -24 70 -27 132
-23 168 11 306 144 454 435 88 174 139 295 298 713 142 375 226 580 319 782
85 185 203 398 220 398 8 0 110 -39 227 -86z m2298 -3484 c144 -19 406 -64
545 -94 l60 -13 -160 -80 c-793 -399 -1600 -612 -2090 -552 -236 29 -415 113
-415 195 0 107 283 290 630 409 219 75 431 123 670 151 165 19 558 11 760 -16z
m6210 -3665 c57 -14 170 -46 250 -70 188 -57 342 -97 526 -135 81 -17 149 -32
150 -33 1 -1 -4 -36 -12 -77 -44 -246 4 -514 205 -1140 28 -85 49 -155 48
-156 -1 0 -139 -18 -307 -40 -275 -35 -327 -39 -535 -39 -247 0 -238 -1 -605
71 -374 73 -501 90 -725 100 -471 21 -1023 -133 -1690 -471 -418 -212 -743
-416 -944 -594 -193 -170 -301 -382 -301 -588 0 -61 27 -221 45 -265 6 -15 -1
-15 -64 7 -321 109 -583 393 -667 721 -28 114 -32 254 -9 353 70 296 401 572
940 784 390 153 706 212 1265 237 427 19 576 36 773 90 213 59 351 121 917
412 328 168 652 279 860 294 123 9 179 -9 263 -85 36 -33 75 -62 87 -66 54
-17 132 27 146 82 14 52 -4 89 -76 157 -126 118 -224 152 -420 143 -143 -6
-289 -39 -485 -108 -184 -64 -321 -127 -680 -310 -611 -311 -725 -343 -1290
-369 -414 -19 -613 -38 -835 -81 -561 -109 -1132 -378 -1421 -669 -192 -195
-276 -376 -286 -623 -9 -202 28 -367 123 -552 189 -371 528 -617 946 -689 33
-6 41 -15 103 -115 86 -137 202 -294 354 -474 17 -21 14 -20 -184 14 -425 72
-716 250 -1208 737 -589 583 -793 979 -723 1402 51 299 209 581 479 853 424
425 1003 725 1577 816 358 57 571 55 1022 -9 414 -59 600 -59 834 0 156 39
303 100 624 257 468 230 529 252 710 252 90 1 138 -4 220 -24z m1344 -315
c992 -188 1284 -293 1563 -563 255 -247 458 -624 534 -993 45 -223 39 -507
-16 -719 -88 -336 -337 -759 -715 -1215 -115 -139 -300 -350 -306 -350 -2 0
25 37 60 83 270 352 505 824 598 1202 32 134 32 360 0 465 -78 247 -251 425
-563 575 -273 131 -586 205 -983 232 l-109 8 -59 185 c-190 601 -233 812 -208
1015 6 49 13 92 16 97 7 12 11 11 188 -22z m-2122 -1456 c67 -9 215 -34 328
-55 656 -128 749 -131 1354 -54 350 45 332 45 346 -7 82 -301 131 -627 200
-1303 36 -358 53 -487 86 -659 63 -325 171 -520 319 -575 132 -50 261 -8 415
134 l55 50 -39 -45 c-108 -125 -656 -686 -959 -982 -633 -618 -690 -670 -716
-654 -17 11 -58 155 -85 297 -40 215 -77 491 -146 1099 -81 709 -126 1030
-181 1260 -128 542 -330 801 -697 892 -115 29 -371 31 -541 4 -325 -50 -691
-172 -1032 -342 -210 -106 -383 -220 -626 -417 -224 -180 -274 -215 -386 -267
-134 -63 -350 -106 -487 -98 l-55 3 -32 85 c-137 369 8 593 623 962 600 359
1199 603 1654 672 133 20 447 20 602 0z m2488 -78 c351 -44 695 -165 898 -315
283 -210 320 -476 130 -951 -178 -449 -539 -985 -724 -1076 -64 -31 -90 -22
-133 45 -89 139 -144 408 -196 956 -55 578 -106 930 -176 1224 -16 68 -29 125
-29 127 0 9 122 3 230 -10z m-4180 -2756 c553 -43 926 -135 1315 -325 284
-139 502 -290 685 -474 118 -119 176 -202 187 -264 4 -30 1 -40 -22 -61 -86
-79 -330 -86 -602 -16 -274 71 -620 239 -977 474 -258 170 -597 436 -786 615
l-75 71 70 -5 c39 -3 131 -10 205 -15z m-1519 -12407 c-51 -363 -143 -655
-306 -978 -110 -218 -165 -304 -393 -608 -692 -927 -1533 -1947 -2246 -2727
-193 -210 -638 -658 -791 -795 -308 -276 -592 -471 -747 -513 -46 -13 -48 -6
-17 94 86 278 401 760 928 1419 240 300 669 814 1341 1605 1030 1211 1612
1911 2080 2504 192 242 185 242 151 -1z"/>
</g>
</svg>
