<svg width="32" height="32" viewBox="0 0 32 32" fill="none" xmlns="http://www.w3.org/2000/svg">
<path d="M15.2104 1.00437C12.6738 1.03343 7.22031 1.42911 4.17006 4.08537C1.90114 6.21938 1.10894 9.37446 1.01609 13.2759C0.939045 17.1632 0.846194 24.4635 8.25945 26.4513V29.4788C8.25945 29.4788 8.21302 30.6902 9.05658 30.9387C10.0957 31.2509 10.6874 30.3189 11.6752 29.3175L13.5174 27.3401C18.5896 27.7405 22.4745 26.8179 22.922 26.681C23.9512 26.3687 29.7485 25.6655 30.6958 18.3643C31.6678 10.824 30.2226 6.07312 27.6139 3.9241H27.5981C26.8109 3.23589 23.647 1.0475 16.5785 1.02312C16.5785 1.02312 16.054 0.990302 15.2104 1.00437ZM15.2973 3.12431C16.0174 3.11963 16.455 3.14869 16.455 3.14869C22.438 3.16369 25.2936 4.87297 25.9673 5.44866C28.1641 7.23576 29.2961 11.5188 28.4674 17.8139C27.6801 23.9178 22.9783 24.3041 22.1081 24.5676C21.7376 24.6801 18.316 25.4808 14.0053 25.2174C14.0053 25.2174 10.7951 28.8947 9.79149 29.8417C9.63246 30.0076 9.44675 30.0564 9.32822 30.032C9.15832 29.9926 9.10696 29.7929 9.11684 29.5191L9.14746 24.4945C2.86027 22.8442 3.23068 16.6175 3.29785 13.365C3.3749 10.1124 4.01794 7.45141 5.93225 5.64931C8.50936 3.43748 13.14 3.13932 15.2954 3.12431H15.2973ZM15.7715 6.37597C15.5552 6.37128 15.3754 6.54192 15.3754 6.74726C15.3754 6.95729 15.5552 7.12325 15.7715 7.12325C17.752 7.08949 19.6613 7.80208 21.0808 9.11099C22.516 10.434 23.2154 12.2117 23.242 14.536C23.242 14.7414 23.4169 14.912 23.6381 14.912V14.897C23.8544 14.897 24.0342 14.7311 24.0342 14.5257C24.132 12.3139 23.2677 10.1649 21.6468 8.5728C20.0831 7.12231 18.1016 6.37503 15.7715 6.37503V6.37597ZM10.5649 7.23576C10.2874 7.19638 9.99892 7.25076 9.75692 7.38672H9.73617C9.2008 7.68488 8.70197 8.06086 8.22883 8.56342C7.86829 8.9591 7.67271 9.35946 7.62135 9.74482C7.59072 9.97453 7.61147 10.2043 7.68358 10.4237L7.70926 10.4387C8.11523 11.5713 8.64567 12.6608 9.29365 13.6866C10.1273 15.1267 11.1556 16.46 12.3498 17.6517L12.3854 17.7005L12.4417 17.7399L12.4772 17.7792L12.5187 17.813C13.7791 18.9513 15.1838 19.9273 16.7069 20.728C18.4454 21.6263 19.5003 22.051 20.1335 22.2273V22.2367C20.3192 22.2901 20.4881 22.3145 20.658 22.3145C21.1983 22.2751 21.708 22.0707 22.109 21.7238C22.6237 21.2841 23.0297 20.8012 23.3339 20.2883V20.2789C23.6371 19.737 23.5344 19.2241 23.0968 18.8772C22.2226 18.1496 21.2704 17.5045 20.2668 16.9485C19.5932 16.6016 18.9087 16.8116 18.6311 17.1632L18.0394 17.8711C17.7362 18.2227 17.185 18.174 17.185 18.174L17.1692 18.1834C13.059 17.1867 11.9626 13.2365 11.9626 13.2365C11.9626 13.2365 11.9113 12.6992 12.2915 12.4255L13.0324 11.8591C13.387 11.5854 13.6339 10.9365 13.2536 10.2961C12.6718 9.33883 11.9932 8.4406 11.2267 7.60987C11.0618 7.41484 10.8257 7.28264 10.5629 7.23388L10.5649 7.23576ZM16.455 8.34965C15.9305 8.34965 15.9305 9.10161 16.46 9.10161C17.7767 9.1213 19.0321 9.63887 19.9478 10.5371C20.7815 11.411 21.2131 12.5736 21.1311 13.7503C21.1361 13.9557 21.3109 14.1216 21.5272 14.1216L21.5431 14.1413C21.7594 14.1413 21.9392 13.9707 21.9392 13.7653C21.9747 12.2754 21.4867 11.0256 20.5296 10.0242C19.5675 9.02286 18.2251 8.46122 16.5113 8.34965C16.4906 8.34965 16.4758 8.34965 16.455 8.34965ZM17.104 10.3711C16.5637 10.3561 16.5429 11.1231 17.0783 11.1381C18.3802 11.2019 19.0124 11.8263 19.0953 13.1109C19.1003 13.3162 19.2751 13.4775 19.4865 13.4775H19.5023C19.7236 13.4681 19.8984 13.2871 19.8826 13.0771C19.7898 11.4025 18.8277 10.4593 17.1198 10.3721C17.1149 10.3721 17.1099 10.3721 17.104 10.3721V10.3711Z" fill="#A7A7A7"/>
</svg>
