<svg width="32" height="32" viewBox="0 0 32 32" fill="none" xmlns="http://www.w3.org/2000/svg">
<path d="M6 1C2.73812 1 1 2.73812 1 6V26C1 29.2619 2.73812 31 6 31H26C29.2619 31 31 29.2619 31 26V6C31 2.73812 29.2619 1 26 1H6ZM6 2.90909H26C27.6894 2.90909 29.0909 4.3106 29.0909 6V26C29.0909 27.6894 27.6894 29.0909 26 29.0909H6C4.3106 29.0909 2.90909 27.6894 2.90909 26V6C2.90909 4.3106 4.3106 2.90909 6 2.90909ZM15.5909 10.5C14.5233 10.4898 13.6029 10.5211 13.0909 10.7727C12.7505 10.94 12.4764 11.2964 12.6364 11.3182C12.8342 11.3444 13.3084 11.4498 13.5455 11.7727C13.8524 12.1902 13.8182 13.1364 13.8182 13.1364C13.8182 13.1364 13.9967 15.724 13.4091 16.0455C13.0062 16.2651 12.4611 15.7796 11.2727 13.7273C10.6633 12.6756 10.2273 11.5455 10.2273 11.5455C10.2273 11.5455 10.1131 11.2982 9.95455 11.1818C9.76255 11.0407 9.5 11 9.5 11L6.68182 11.0455C6.68182 11.0455 6.24655 11.0411 6.09091 11.2273C5.95127 11.3931 6.04545 11.7273 6.04545 11.7273C6.04545 11.7273 8.296 16.9655 10.8182 19.5909C13.1338 21.9967 15.7727 21.8182 15.7727 21.8182H16.9545C16.9545 21.8182 17.3167 21.7887 17.5 21.5909C17.6687 21.4091 17.6364 21.0455 17.6364 21.0455C17.6364 21.0455 17.6233 19.4615 18.3636 19.2273C19.0938 18.996 20.0505 20.7724 21.0455 21.4545C21.7975 21.9709 22.3636 21.8636 22.3636 21.8636L25 21.8182C25 21.8182 26.3862 21.7302 25.7273 20.6364C25.6735 20.5476 25.3655 19.8415 23.7727 18.3636C22.1058 16.816 22.3095 17.04 24.3182 14.3636C25.5415 12.7331 26.0618 11.7444 25.9091 11.3182C25.7636 10.9124 24.8636 11.0455 24.8636 11.0455H21.8636C21.8636 11.0455 21.6189 11.0375 21.4545 11.1364C21.2931 11.2324 21.1818 11.4545 21.1818 11.4545C21.1818 11.4545 20.7222 12.6993 20.0909 13.7727C18.7585 16.036 18.2182 16.1396 18 16C17.4924 15.6727 17.6364 14.7011 17.6364 14C17.6364 11.8065 17.9804 10.8735 17 10.6364C16.6742 10.5578 16.4244 10.5087 15.5909 10.5Z" fill="#A7A7A7"/>
</svg>
